<mxfile host="app.diagrams.net" modified="2024-04-28T11:49:14.151Z" agent="Mozilla/5.0 (Windows NT 10.0; Win64; x64) AppleWebKit/537.36 (KHTML, like Gecko) Chrome/123.0.0.0 Safari/537.36" etag="bUllMnns_vKvCofNV-Rk" version="24.2.3" type="github">
  <diagram name="Page-1" id="K-BMb-8MRilRPjLB60yU">
    <mxGraphModel dx="808" dy="502" grid="1" gridSize="10" guides="1" tooltips="1" connect="1" arrows="1" fold="1" page="1" pageScale="1" pageWidth="1169" pageHeight="827" math="0" shadow="0">
      <root>
        <mxCell id="0" />
        <mxCell id="1" parent="0" />
        <mxCell id="pzk033RYk6VoXwSy3GmK-10" value="&lt;font style=&quot;font-size: 17px;&quot;&gt;Pull&lt;/font&gt;" style="edgeStyle=orthogonalEdgeStyle;rounded=0;orthogonalLoop=1;jettySize=auto;html=1;exitX=0.5;exitY=1;exitDx=0;exitDy=0;entryX=0.5;entryY=0;entryDx=0;entryDy=0;flowAnimation=1;strokeWidth=2;strokeColor=#000066;labelBackgroundColor=default;" edge="1" parent="1" source="pzk033RYk6VoXwSy3GmK-1" target="pzk033RYk6VoXwSy3GmK-2">
          <mxGeometry relative="1" as="geometry" />
        </mxCell>
        <mxCell id="pzk033RYk6VoXwSy3GmK-12" style="rounded=0;orthogonalLoop=1;jettySize=auto;html=1;exitX=0;exitY=0.5;exitDx=0;exitDy=0;entryX=1;entryY=0.5;entryDx=0;entryDy=0;flowAnimation=1;strokeWidth=2;strokeColor=#000066;" edge="1" parent="1" source="pzk033RYk6VoXwSy3GmK-1" target="pzk033RYk6VoXwSy3GmK-11">
          <mxGeometry relative="1" as="geometry" />
        </mxCell>
        <mxCell id="pzk033RYk6VoXwSy3GmK-22" value="&lt;font style=&quot;font-size: 17px;&quot;&gt;pull&lt;/font&gt;" style="edgeLabel;html=1;align=center;verticalAlign=middle;resizable=0;points=[];" vertex="1" connectable="0" parent="pzk033RYk6VoXwSy3GmK-12">
          <mxGeometry x="0.0796" y="-1" relative="1" as="geometry">
            <mxPoint y="-13" as="offset" />
          </mxGeometry>
        </mxCell>
        <mxCell id="pzk033RYk6VoXwSy3GmK-13" style="edgeStyle=orthogonalEdgeStyle;rounded=0;orthogonalLoop=1;jettySize=auto;html=1;startArrow=classic;startFill=1;flowAnimation=1;strokeWidth=2;strokeColor=#000066;" edge="1" parent="1" source="pzk033RYk6VoXwSy3GmK-1" target="pzk033RYk6VoXwSy3GmK-3">
          <mxGeometry relative="1" as="geometry" />
        </mxCell>
        <mxCell id="pzk033RYk6VoXwSy3GmK-21" value="&lt;font style=&quot;font-size: 17px;&quot;&gt;Store&lt;/font&gt;" style="edgeLabel;html=1;align=center;verticalAlign=middle;resizable=0;points=[];" vertex="1" connectable="0" parent="pzk033RYk6VoXwSy3GmK-13">
          <mxGeometry x="-0.042" relative="1" as="geometry">
            <mxPoint y="-13" as="offset" />
          </mxGeometry>
        </mxCell>
        <mxCell id="pzk033RYk6VoXwSy3GmK-1" value="Prometheus" style="rounded=0;whiteSpace=wrap;html=1;fontSize=22;fillColor=#f8cecc;strokeColor=#b85450;" vertex="1" parent="1">
          <mxGeometry x="607.5" y="153" width="170" height="60" as="geometry" />
        </mxCell>
        <mxCell id="pzk033RYk6VoXwSy3GmK-2" value="Pushgateway" style="rounded=0;whiteSpace=wrap;html=1;fontSize=22;fontStyle=1;fillColor=#dae8fc;strokeColor=#6c8ebf;" vertex="1" parent="1">
          <mxGeometry x="607.5" y="339" width="170" height="60" as="geometry" />
        </mxCell>
        <mxCell id="pzk033RYk6VoXwSy3GmK-3" value="TSDB" style="shape=cylinder3;whiteSpace=wrap;html=1;boundedLbl=1;backgroundOutline=1;size=15;fontSize=22;fontColor=#000066;" vertex="1" parent="1">
          <mxGeometry x="888" y="138" width="77.5" height="91" as="geometry" />
        </mxCell>
        <mxCell id="pzk033RYk6VoXwSy3GmK-7" style="rounded=0;orthogonalLoop=1;jettySize=auto;html=1;exitX=0.5;exitY=0;exitDx=0;exitDy=0;entryX=0.468;entryY=0.99;entryDx=0;entryDy=0;flowAnimation=1;strokeWidth=2;strokeColor=#000066;entryPerimeter=0;" edge="1" parent="1" source="pzk033RYk6VoXwSy3GmK-4" target="pzk033RYk6VoXwSy3GmK-2">
          <mxGeometry relative="1" as="geometry">
            <mxPoint x="797" y="499" as="targetPoint" />
          </mxGeometry>
        </mxCell>
        <mxCell id="pzk033RYk6VoXwSy3GmK-26" value="&lt;font style=&quot;font-size: 17px;&quot;&gt;push&lt;/font&gt;" style="edgeLabel;html=1;align=center;verticalAlign=middle;resizable=0;points=[];" vertex="1" connectable="0" parent="pzk033RYk6VoXwSy3GmK-7">
          <mxGeometry x="-0.034" y="-2" relative="1" as="geometry">
            <mxPoint as="offset" />
          </mxGeometry>
        </mxCell>
        <mxCell id="pzk033RYk6VoXwSy3GmK-4" value="Short-lived&amp;nbsp;&lt;div style=&quot;font-size: 18px;&quot;&gt;Application&lt;/div&gt;" style="ellipse;whiteSpace=wrap;html=1;fontSize=18;fontColor=#000066;sketch=1;curveFitting=1;jiggle=2;fillColor=none;" vertex="1" parent="1">
          <mxGeometry x="621" y="600" width="135" height="90" as="geometry" />
        </mxCell>
        <mxCell id="pzk033RYk6VoXwSy3GmK-8" style="rounded=0;orthogonalLoop=1;jettySize=auto;html=1;exitX=0.5;exitY=0;exitDx=0;exitDy=0;entryX=0.75;entryY=1;entryDx=0;entryDy=0;flowAnimation=1;strokeWidth=2;strokeColor=#000066;" edge="1" parent="1" source="pzk033RYk6VoXwSy3GmK-5" target="pzk033RYk6VoXwSy3GmK-2">
          <mxGeometry relative="1" as="geometry">
            <mxPoint x="807" y="499" as="targetPoint" />
          </mxGeometry>
        </mxCell>
        <mxCell id="pzk033RYk6VoXwSy3GmK-27" value="&lt;font style=&quot;font-size: 17px;&quot;&gt;push&lt;/font&gt;" style="edgeLabel;html=1;align=center;verticalAlign=middle;resizable=0;points=[];" vertex="1" connectable="0" parent="pzk033RYk6VoXwSy3GmK-8">
          <mxGeometry x="0.0455" y="1" relative="1" as="geometry">
            <mxPoint as="offset" />
          </mxGeometry>
        </mxCell>
        <mxCell id="pzk033RYk6VoXwSy3GmK-5" value="Cron-Job" style="ellipse;whiteSpace=wrap;html=1;fontSize=18;fontColor=#000066;sketch=1;curveFitting=1;jiggle=2;fillColor=none;" vertex="1" parent="1">
          <mxGeometry x="820" y="600" width="135" height="90" as="geometry" />
        </mxCell>
        <mxCell id="pzk033RYk6VoXwSy3GmK-9" style="rounded=0;orthogonalLoop=1;jettySize=auto;html=1;exitX=0.5;exitY=0;exitDx=0;exitDy=0;entryX=0.25;entryY=1;entryDx=0;entryDy=0;flowAnimation=1;strokeWidth=2;strokeColor=#000066;" edge="1" parent="1" source="pzk033RYk6VoXwSy3GmK-6" target="pzk033RYk6VoXwSy3GmK-2">
          <mxGeometry relative="1" as="geometry">
            <mxPoint x="787" y="499" as="targetPoint" />
          </mxGeometry>
        </mxCell>
        <mxCell id="pzk033RYk6VoXwSy3GmK-25" value="&lt;font style=&quot;font-size: 17px;&quot;&gt;post&lt;/font&gt;" style="edgeLabel;html=1;align=center;verticalAlign=middle;resizable=0;points=[];" vertex="1" connectable="0" parent="pzk033RYk6VoXwSy3GmK-9">
          <mxGeometry x="-0.1061" y="1" relative="1" as="geometry">
            <mxPoint y="-9" as="offset" />
          </mxGeometry>
        </mxCell>
        <mxCell id="pzk033RYk6VoXwSy3GmK-6" value="Curl Post&amp;nbsp;&lt;div style=&quot;font-size: 18px;&quot;&gt;Any metrics&lt;/div&gt;" style="ellipse;whiteSpace=wrap;html=1;fontSize=18;fontColor=#000066;sketch=1;curveFitting=1;jiggle=2;fillColor=none;" vertex="1" parent="1">
          <mxGeometry x="410" y="600" width="135" height="90" as="geometry" />
        </mxCell>
        <mxCell id="pzk033RYk6VoXwSy3GmK-15" style="edgeStyle=orthogonalEdgeStyle;rounded=0;orthogonalLoop=1;jettySize=auto;html=1;entryX=0;entryY=0.5;entryDx=0;entryDy=0;flowAnimation=1;strokeWidth=2;strokeColor=#000066;" edge="1" parent="1" source="pzk033RYk6VoXwSy3GmK-14" target="pzk033RYk6VoXwSy3GmK-11">
          <mxGeometry relative="1" as="geometry">
            <mxPoint x="289" y="183" as="sourcePoint" />
          </mxGeometry>
        </mxCell>
        <mxCell id="pzk033RYk6VoXwSy3GmK-23" value="&lt;font style=&quot;font-size: 17px;&quot;&gt;Show&lt;/font&gt;" style="edgeLabel;html=1;align=center;verticalAlign=middle;resizable=0;points=[];" vertex="1" connectable="0" parent="pzk033RYk6VoXwSy3GmK-15">
          <mxGeometry x="-0.2444" y="7" relative="1" as="geometry">
            <mxPoint x="1" y="-6" as="offset" />
          </mxGeometry>
        </mxCell>
        <mxCell id="pzk033RYk6VoXwSy3GmK-11" value="Grafana" style="rounded=0;whiteSpace=wrap;html=1;fontSize=22;fontColor=#000000;fillColor=#f0a30a;strokeColor=#BD7000;" vertex="1" parent="1">
          <mxGeometry x="360" y="153" width="170" height="60" as="geometry" />
        </mxCell>
        <mxCell id="pzk033RYk6VoXwSy3GmK-14" value="" style="sketch=0;outlineConnect=0;fontColor=#000066;gradientColor=none;fillColor=#232F3D;strokeColor=none;dashed=0;verticalLabelPosition=bottom;verticalAlign=top;align=center;html=1;fontSize=22;fontStyle=0;aspect=fixed;pointerEvents=1;shape=mxgraph.aws4.users;" vertex="1" parent="1">
          <mxGeometry x="117" y="144" width="78" height="78" as="geometry" />
        </mxCell>
        <mxCell id="pzk033RYk6VoXwSy3GmK-17" value="" style="sketch=0;pointerEvents=1;shadow=0;dashed=0;html=1;strokeColor=none;fillColor=#505050;labelPosition=center;verticalLabelPosition=bottom;verticalAlign=top;outlineConnect=0;align=center;shape=mxgraph.office.users.approver;fontSize=22;fontColor=#000066;" vertex="1" parent="1">
          <mxGeometry x="456.045" y="679" width="42.91" height="40" as="geometry" />
        </mxCell>
        <mxCell id="pzk033RYk6VoXwSy3GmK-19" value="" style="sketch=0;html=1;aspect=fixed;shadow=0;verticalAlign=top;labelPosition=center;verticalLabelPosition=bottom;shape=mxgraph.gcp2.arrow_cycle;strokeColor=#C73500;fillColor=#fa6800;fontColor=#000000;" vertex="1" parent="1">
          <mxGeometry x="662.185" y="674" width="52.63" height="50" as="geometry" />
        </mxCell>
        <mxCell id="pzk033RYk6VoXwSy3GmK-20" value="" style="aspect=fixed;sketch=0;html=1;dashed=0;whitespace=wrap;fillColor=#2875E2;strokeColor=#ffffff;points=[[0.005,0.63,0],[0.1,0.2,0],[0.9,0.2,0],[0.5,0,0],[0.995,0.63,0],[0.72,0.99,0],[0.5,1,0],[0.28,0.99,0]];shape=mxgraph.kubernetes.icon2;prIcon=cronjob" vertex="1" parent="1">
          <mxGeometry x="862.5" y="675" width="50" height="48" as="geometry" />
        </mxCell>
      </root>
    </mxGraphModel>
  </diagram>
</mxfile>
